<?xml version="1.0" standalone="no"?>
<!DOCTYPE svg PUBLIC "-//W3C//DTD SVG 20010904//EN"
 "http://www.w3.org/TR/2001/REC-SVG-20010904/DTD/svg10.dtd">
<svg version="1.0" xmlns="http://www.w3.org/2000/svg"
 width="931.000000pt" height="651.000000pt" viewBox="0 0 931.000000 651.000000"
 preserveAspectRatio="xMidYMid meet">

<g transform="translate(0.000000,651.000000) scale(0.100000,-0.100000)"
fill="#000000" stroke="none">
<path d="M7685 6410 c-49 -15 -98 -53 -437 -331 -584 -480 -1126 -907 -1265
-996 -67 -43 -87 -73 -87 -133 0 -88 44 -127 159 -141 128 -16 180 -41 260
-123 1393 -1437 1278 -1328 1406 -1330 118 -2 108 -10 839 699 734 712 714
689 714 814 0 48 -6 79 -22 112 -34 70 -1306 1379 -1370 1410 -52 26 -147 34
-197 19z"/>
<path d="M320 3145 l0 -3075 1135 0 1135 0 0 3075 0 3075 -1135 0 -1135 0 0
-3075z"/>
<path d="M3060 3145 l0 -3075 1135 0 1135 0 0 3075 0 3075 -1135 0 -1135 0 0
-3075z"/>
<path d="M5820 2422 l0 -2352 1135 0 1135 0 0 1672 0 1671 -62 -59 c-113 -107
-190 -139 -327 -132 -72 3 -97 9 -154 38 -63 31 -111 77 -718 704 -357 369
-663 677 -679 683 -16 7 -70 19 -119 27 -96 16 -140 33 -183 74 l-28 26 0
-2352z"/>
</g>
</svg>
